# xmcd
#
# Track frame offsets:
#   150
#   16082
#   31707
#   48941
#   65231
#   80496
#   96388
#   109595
#   126683
#   140223
#   156913
#   169919
#   184781
#   198525
#   212659
#   229318
#
# Disc length: 3247 seconds
#
# Revision: 0
# Processed by: cddbd v1.5.2PL0 Copyright (c) Steve Scherf et al.
# Submitted via: GXTranscoder 2.0.1939
#
DISCID=eb0cad10
DTITLE=fantasy - fantasy
DYEAR=1900
DGENRE=Dance
TTITLE0=eine insel in den wolken
TTITLE1=wenn du mir in die augen schaust
TTITLE2=du bist schön
TTITLE3=ich hab geträumt
TTITLE4=halt mich fest in deinen armen
TTITLE5=und wenn du gehst
TTITLE6=blinder passagier
TTITLE7=mein schiff es fährt heut richtung süden
TTITLE8=ein hotel am meer
TTITLE9=einmal um die ganze welt
TTITLE10=
TTITLE11=so wie ein vulkan
TTITLE12=vielleicht im nächsten leben
TTITLE13=cap d amour
TTITLE14=mein schiff es fährt heut richtung süden (dj mix)
TTITLE15=so wie ein vulkan (remix)
EXTD=
EXTT0=
EXTT1=
EXTT2=
EXTT3=
EXTT4=
EXTT5=
EXTT6=
EXTT7=
EXTT8=
EXTT9=
EXTT10=
EXTT11=
EXTT12=
EXTT13=
EXTT14=
EXTT15=
PLAYORDER=
